<svg xmlns="http://www.w3.org/2000/svg" xmlns:xlink="http://www.w3.org/1999/xlink" width="40" zoomAndPan="magnify" viewBox="0 0 30 30.000001" height="40" preserveAspectRatio="xMidYMid meet" version="1.0"><defs><clipPath id="bdde276fb9"><path d="M 0.484375 0 L 29.515625 0 L 29.515625 29.03125 L 0.484375 29.03125 Z M 0.484375 0 " clip-rule="nonzero"/></clipPath><clipPath id="0bd027543e"><path d="M 2.40625 1.921875 L 27.808594 1.921875 L 27.808594 27.328125 L 2.40625 27.328125 Z M 2.40625 1.921875 " clip-rule="nonzero"/></clipPath><clipPath id="6bd84bf054"><path d="M 20 15 L 22.789062 15 L 22.789062 19 L 20 19 Z M 20 15 " clip-rule="nonzero"/></clipPath><clipPath id="87be766509"><path d="M 20 12 L 22.789062 12 L 22.789062 15 L 20 15 Z M 20 12 " clip-rule="nonzero"/></clipPath><clipPath id="02bba0d120"><path d="M 20 19 L 22.789062 19 L 22.789062 21 L 20 21 Z M 20 19 " clip-rule="nonzero"/></clipPath><clipPath id="1fb47a9138"><path d="M 20 21 L 22.789062 21 L 22.789062 22.628906 L 20 22.628906 Z M 20 21 " clip-rule="nonzero"/></clipPath><clipPath id="4e479a4c67"><path d="M 7.546875 8 L 9 8 L 9 9 L 7.546875 9 Z M 7.546875 8 " clip-rule="nonzero"/></clipPath><clipPath id="edd014329f"><path d="M 7.546875 10 L 9 10 L 9 11 L 7.546875 11 Z M 7.546875 10 " clip-rule="nonzero"/></clipPath><clipPath id="85895e7adf"><path d="M 7.546875 12 L 9 12 L 9 14 L 7.546875 14 Z M 7.546875 12 " clip-rule="nonzero"/></clipPath><clipPath id="2175fde799"><path d="M 7.546875 17 L 9 17 L 9 18 L 7.546875 18 Z M 7.546875 17 " clip-rule="nonzero"/></clipPath><clipPath id="1aefff9fb2"><path d="M 7.546875 15 L 9 15 L 9 16 L 7.546875 16 Z M 7.546875 15 " clip-rule="nonzero"/></clipPath><clipPath id="ff18a36300"><path d="M 7.546875 19 L 9 19 L 9 21 L 7.546875 21 Z M 7.546875 19 " clip-rule="nonzero"/></clipPath><clipPath id="06459fa688"><path d="M 9 7 L 20 7 L 20 22.628906 L 9 22.628906 Z M 9 7 " clip-rule="nonzero"/></clipPath><clipPath id="d1db976a78"><path d="M 8 6.660156 L 19 6.660156 L 19 22 L 8 22 Z M 8 6.660156 " clip-rule="nonzero"/></clipPath></defs><g clip-path="url(#bdde276fb9)"><path fill="#ffffff" d="M 0.484375 0 L 29.515625 0 L 29.515625 29.03125 L 0.484375 29.03125 Z M 0.484375 0 " fill-opacity="1" fill-rule="nonzero"/><path fill="#ff914d" d="M 0.484375 0 L 29.515625 0 L 29.515625 29.03125 L 0.484375 29.03125 Z M 0.484375 0 " fill-opacity="1" fill-rule="nonzero"/></g><g clip-path="url(#0bd027543e)"><path fill="#ffffff" d="M 14.996094 27.101562 C 8.039062 27.101562 2.40625 21.425781 2.40625 14.511719 C 2.40625 7.597656 8.039062 1.921875 14.996094 1.921875 C 21.949219 1.921875 27.582031 7.558594 27.582031 14.511719 C 27.582031 21.464844 21.910156 27.101562 14.996094 27.101562 Z M 14.996094 2.699219 C 8.46875 2.699219 3.183594 7.984375 3.183594 14.511719 C 3.183594 21.039062 8.46875 26.324219 14.996094 26.324219 C 21.523438 26.324219 26.804688 21.039062 26.804688 14.511719 C 26.804688 7.984375 21.484375 2.699219 14.996094 2.699219 Z M 14.996094 2.699219 " fill-opacity="1" fill-rule="nonzero"/></g><g clip-path="url(#6bd84bf054)"><path fill="#ffffff" d="M 20.714844 15.152344 L 22.375 15.136719 L 22.410156 18.804688 L 20.753906 18.820312 Z M 20.714844 15.152344 " fill-opacity="1" fill-rule="nonzero"/></g><g clip-path="url(#87be766509)"><path fill="#ffffff" d="M 21.46875 12.660156 C 21.4375 12.949219 21.34375 13.21875 21.1875 13.464844 C 20.921875 13.878906 20.769531 14.332031 20.726562 14.820312 L 22.355469 14.804688 C 22.304688 14.316406 22.140625 13.867188 21.867188 13.457031 C 21.707031 13.214844 21.609375 12.949219 21.570312 12.660156 C 21.5625 12.574219 21.542969 12.492188 21.515625 12.410156 C 21.492188 12.492188 21.476562 12.574219 21.46875 12.660156 Z M 21.46875 12.660156 " fill-opacity="1" fill-rule="nonzero"/></g><g clip-path="url(#02bba0d120)"><path fill="#ffffff" d="M 20.757812 19.152344 L 22.414062 19.136719 L 22.433594 20.960938 L 20.773438 20.980469 Z M 20.757812 19.152344 " fill-opacity="1" fill-rule="nonzero"/></g><g clip-path="url(#1fb47a9138)"><path fill="#ffffff" d="M 20.777344 21.3125 L 20.78125 21.503906 C 20.78125 21.734375 20.863281 21.929688 21.027344 22.089844 C 21.191406 22.25 21.386719 22.332031 21.617188 22.328125 C 21.847656 22.324219 22.042969 22.242188 22.203125 22.078125 C 22.363281 21.914062 22.441406 21.71875 22.4375 21.488281 L 22.4375 21.296875 Z M 20.777344 21.3125 " fill-opacity="1" fill-rule="nonzero"/></g><g clip-path="url(#4e479a4c67)"><path fill="#ffffff" d="M 7.679688 8.1875 L 8.46875 8.1875 C 8.554688 8.1875 8.597656 8.226562 8.597656 8.3125 L 8.597656 8.484375 C 8.597656 8.570312 8.554688 8.609375 8.46875 8.609375 L 7.679688 8.609375 C 7.59375 8.609375 7.550781 8.570312 7.550781 8.484375 L 7.550781 8.3125 C 7.550781 8.226562 7.59375 8.1875 7.679688 8.1875 Z M 7.679688 8.1875 " fill-opacity="1" fill-rule="nonzero"/></g><g clip-path="url(#edd014329f)"><path fill="#ffffff" d="M 7.679688 10.511719 L 8.46875 10.511719 C 8.554688 10.511719 8.597656 10.550781 8.597656 10.636719 L 8.597656 10.808594 C 8.597656 10.894531 8.554688 10.9375 8.46875 10.9375 L 7.679688 10.9375 C 7.59375 10.9375 7.550781 10.894531 7.550781 10.808594 L 7.550781 10.636719 C 7.550781 10.550781 7.59375 10.511719 7.679688 10.511719 Z M 7.679688 10.511719 " fill-opacity="1" fill-rule="nonzero"/></g><g clip-path="url(#85895e7adf)"><path fill="#ffffff" d="M 7.679688 12.835938 L 8.46875 12.835938 C 8.554688 12.835938 8.597656 12.878906 8.597656 12.960938 L 8.597656 13.132812 C 8.597656 13.21875 8.554688 13.261719 8.46875 13.261719 L 7.679688 13.261719 C 7.59375 13.261719 7.550781 13.21875 7.550781 13.132812 L 7.550781 12.960938 C 7.550781 12.878906 7.59375 12.835938 7.679688 12.835938 Z M 7.679688 12.835938 " fill-opacity="1" fill-rule="nonzero"/></g><g clip-path="url(#2175fde799)"><path fill="#ffffff" d="M 7.679688 17.484375 L 8.46875 17.484375 C 8.554688 17.484375 8.597656 17.527344 8.597656 17.613281 L 8.597656 17.78125 C 8.597656 17.867188 8.554688 17.910156 8.46875 17.910156 L 7.679688 17.910156 C 7.59375 17.910156 7.550781 17.867188 7.550781 17.78125 L 7.550781 17.613281 C 7.550781 17.527344 7.59375 17.484375 7.679688 17.484375 Z M 7.679688 17.484375 " fill-opacity="1" fill-rule="nonzero"/></g><g clip-path="url(#1aefff9fb2)"><path fill="#ffffff" d="M 7.679688 15.160156 L 8.46875 15.160156 C 8.554688 15.160156 8.597656 15.203125 8.597656 15.285156 L 8.597656 15.457031 C 8.597656 15.542969 8.554688 15.585938 8.46875 15.585938 L 7.679688 15.585938 C 7.59375 15.585938 7.550781 15.542969 7.550781 15.457031 L 7.550781 15.285156 C 7.550781 15.203125 7.59375 15.160156 7.679688 15.160156 Z M 7.679688 15.160156 " fill-opacity="1" fill-rule="nonzero"/></g><g clip-path="url(#ff18a36300)"><path fill="#ffffff" d="M 7.679688 19.808594 L 8.46875 19.808594 C 8.554688 19.808594 8.597656 19.851562 8.597656 19.9375 L 8.597656 20.105469 C 8.597656 20.191406 8.554688 20.234375 8.46875 20.234375 L 7.679688 20.234375 C 7.59375 20.234375 7.550781 20.191406 7.550781 20.105469 L 7.550781 19.9375 C 7.550781 19.851562 7.59375 19.808594 7.679688 19.808594 Z M 7.679688 19.808594 " fill-opacity="1" fill-rule="nonzero"/></g><g clip-path="url(#06459fa688)"><path fill="#ffffff" d="M 18.859375 7.394531 L 18.644531 7.394531 L 18.644531 20.90625 C 18.644531 21.140625 18.558594 21.34375 18.394531 21.511719 C 18.226562 21.679688 18.023438 21.761719 17.785156 21.761719 L 9.261719 21.761719 L 9.261719 21.800781 C 9.261719 21.945312 9.3125 22.070312 9.417969 22.171875 C 9.519531 22.273438 9.640625 22.324219 9.785156 22.324219 L 18.863281 22.320312 C 19.007812 22.320312 19.128906 22.269531 19.230469 22.167969 C 19.332031 22.066406 19.386719 21.941406 19.386719 21.796875 L 19.386719 7.917969 C 19.386719 7.773438 19.332031 7.652344 19.230469 7.550781 C 19.128906 7.445312 19.007812 7.394531 18.859375 7.394531 Z M 18.859375 7.394531 " fill-opacity="1" fill-rule="nonzero"/></g><g clip-path="url(#d1db976a78)"><path fill="#ffffff" d="M 18.3125 20.90625 L 18.3125 7.183594 C 18.3125 7.039062 18.257812 6.917969 18.15625 6.816406 C 18.054688 6.710938 17.929688 6.660156 17.785156 6.660156 L 8.753906 6.660156 C 8.609375 6.660156 8.484375 6.710938 8.382812 6.816406 C 8.28125 6.917969 8.230469 7.039062 8.230469 7.183594 L 8.230469 7.851562 L 8.46875 7.851562 C 8.597656 7.851562 8.703125 7.898438 8.792969 7.988281 C 8.882812 8.078125 8.929688 8.1875 8.929688 8.3125 L 8.929688 8.484375 C 8.929688 8.609375 8.882812 8.71875 8.792969 8.808594 C 8.703125 8.898438 8.597656 8.945312 8.46875 8.945312 L 8.230469 8.945312 L 8.230469 10.175781 L 8.46875 10.175781 C 8.597656 10.175781 8.703125 10.222656 8.792969 10.3125 C 8.882812 10.402344 8.929688 10.511719 8.929688 10.636719 L 8.929688 10.808594 C 8.929688 10.933594 8.882812 11.042969 8.792969 11.132812 C 8.703125 11.222656 8.597656 11.269531 8.46875 11.269531 L 8.230469 11.269531 L 8.230469 12.5 L 8.46875 12.5 C 8.597656 12.5 8.703125 12.546875 8.792969 12.636719 C 8.882812 12.726562 8.929688 12.835938 8.929688 12.960938 L 8.929688 13.132812 C 8.929688 13.261719 8.882812 13.367188 8.792969 13.457031 C 8.703125 13.546875 8.597656 13.59375 8.46875 13.59375 L 8.230469 13.59375 L 8.230469 14.824219 L 8.46875 14.824219 C 8.597656 14.824219 8.703125 14.871094 8.792969 14.960938 C 8.882812 15.050781 8.929688 15.160156 8.929688 15.285156 L 8.929688 15.457031 C 8.929688 15.585938 8.882812 15.691406 8.792969 15.78125 C 8.703125 15.871094 8.597656 15.917969 8.46875 15.917969 L 8.230469 15.917969 L 8.230469 17.152344 L 8.46875 17.152344 C 8.597656 17.152344 8.703125 17.195312 8.792969 17.285156 C 8.882812 17.375 8.929688 17.484375 8.929688 17.613281 L 8.929688 17.78125 C 8.929688 17.910156 8.882812 18.019531 8.792969 18.109375 C 8.703125 18.199219 8.597656 18.242188 8.46875 18.242188 L 8.230469 18.242188 L 8.230469 19.476562 L 8.46875 19.476562 C 8.597656 19.476562 8.703125 19.519531 8.792969 19.609375 C 8.882812 19.699219 8.929688 19.808594 8.929688 19.9375 L 8.929688 20.105469 C 8.929688 20.234375 8.882812 20.34375 8.792969 20.433594 C 8.703125 20.523438 8.597656 20.566406 8.46875 20.566406 L 8.230469 20.566406 L 8.230469 20.90625 C 8.230469 21.050781 8.28125 21.171875 8.382812 21.273438 C 8.484375 21.378906 8.609375 21.429688 8.753906 21.429688 L 17.785156 21.429688 C 17.929688 21.429688 18.054688 21.378906 18.15625 21.273438 C 18.257812 21.171875 18.3125 21.050781 18.3125 20.90625 Z M 10.1875 19.234375 L 10.09375 19.234375 C 9.980469 19.234375 9.925781 19.179688 9.925781 19.066406 C 9.925781 18.957031 9.980469 18.902344 10.09375 18.902344 L 10.1875 18.902344 C 10.300781 18.902344 10.355469 18.957031 10.355469 19.066406 C 10.355469 19.179688 10.300781 19.234375 10.1875 19.234375 Z M 10.1875 17.886719 L 10.09375 17.886719 C 9.980469 17.886719 9.925781 17.832031 9.925781 17.722656 C 9.925781 17.609375 9.980469 17.554688 10.09375 17.554688 L 10.1875 17.554688 C 10.300781 17.554688 10.355469 17.609375 10.355469 17.722656 C 10.355469 17.832031 10.300781 17.886719 10.1875 17.886719 Z M 10.1875 16.539062 L 10.09375 16.539062 C 9.980469 16.539062 9.925781 16.484375 9.925781 16.375 C 9.925781 16.261719 9.980469 16.207031 10.09375 16.207031 L 10.1875 16.207031 C 10.300781 16.207031 10.355469 16.261719 10.355469 16.375 C 10.355469 16.484375 10.300781 16.539062 10.1875 16.539062 Z M 10.1875 15.191406 L 10.09375 15.191406 C 9.980469 15.191406 9.925781 15.136719 9.925781 15.027344 C 9.925781 14.914062 9.980469 14.859375 10.09375 14.859375 L 10.1875 14.859375 C 10.300781 14.859375 10.355469 14.914062 10.355469 15.027344 C 10.355469 15.136719 10.300781 15.191406 10.1875 15.191406 Z M 10.1875 13.84375 L 10.09375 13.84375 C 9.980469 13.84375 9.925781 13.789062 9.925781 13.679688 C 9.925781 13.566406 9.980469 13.511719 10.09375 13.511719 L 10.1875 13.511719 C 10.300781 13.511719 10.355469 13.566406 10.355469 13.679688 C 10.355469 13.789062 10.300781 13.84375 10.1875 13.84375 Z M 10.1875 12.496094 L 10.09375 12.496094 C 9.980469 12.496094 9.925781 12.441406 9.925781 12.332031 C 9.925781 12.21875 9.980469 12.164062 10.09375 12.164062 L 10.1875 12.164062 C 10.300781 12.164062 10.355469 12.21875 10.355469 12.332031 C 10.355469 12.441406 10.300781 12.496094 10.1875 12.496094 Z M 11.464844 19.234375 L 11.136719 19.234375 C 11.027344 19.234375 10.972656 19.179688 10.972656 19.066406 C 10.972656 18.957031 11.027344 18.902344 11.136719 18.902344 L 11.464844 18.902344 C 11.578125 18.902344 11.632812 18.957031 11.632812 19.066406 C 11.632812 19.179688 11.578125 19.234375 11.464844 19.234375 Z M 11.464844 17.886719 L 11.136719 17.886719 C 11.027344 17.886719 10.972656 17.832031 10.972656 17.722656 C 10.972656 17.609375 11.027344 17.554688 11.136719 17.554688 L 11.464844 17.554688 C 11.578125 17.554688 11.632812 17.609375 11.632812 17.722656 C 11.632812 17.832031 11.578125 17.886719 11.464844 17.886719 Z M 11.464844 16.539062 L 11.136719 16.539062 C 11.027344 16.539062 10.972656 16.484375 10.972656 16.375 C 10.972656 16.261719 11.027344 16.207031 11.136719 16.207031 L 11.464844 16.207031 C 11.578125 16.207031 11.632812 16.261719 11.632812 16.375 C 11.632812 16.484375 11.578125 16.539062 11.464844 16.539062 Z M 11.464844 15.191406 L 11.136719 15.191406 C 11.027344 15.191406 10.972656 15.136719 10.972656 15.027344 C 10.972656 14.914062 11.027344 14.859375 11.136719 14.859375 L 11.464844 14.859375 C 11.578125 14.859375 11.632812 14.914062 11.632812 15.027344 C 11.632812 15.136719 11.578125 15.191406 11.464844 15.191406 Z M 11.464844 13.84375 L 11.136719 13.84375 C 11.027344 13.84375 10.972656 13.789062 10.972656 13.679688 C 10.972656 13.566406 11.027344 13.511719 11.136719 13.511719 L 11.464844 13.511719 C 11.578125 13.511719 11.632812 13.566406 11.632812 13.679688 C 11.632812 13.789062 11.578125 13.84375 11.464844 13.84375 Z M 11.464844 12.496094 L 11.136719 12.496094 C 11.027344 12.496094 10.972656 12.441406 10.972656 12.332031 C 10.972656 12.21875 11.027344 12.164062 11.136719 12.164062 L 11.464844 12.164062 C 11.578125 12.164062 11.632812 12.21875 11.632812 12.332031 C 11.632812 12.441406 11.578125 12.496094 11.464844 12.496094 Z M 16.613281 19.234375 L 12.429688 19.234375 C 12.320312 19.234375 12.265625 19.179688 12.265625 19.066406 C 12.265625 18.957031 12.320312 18.902344 12.429688 18.902344 L 16.613281 18.902344 C 16.726562 18.902344 16.78125 18.957031 16.78125 19.066406 C 16.78125 19.179688 16.726562 19.234375 16.613281 19.234375 Z M 16.613281 17.886719 L 12.429688 17.886719 C 12.320312 17.886719 12.265625 17.832031 12.265625 17.722656 C 12.265625 17.609375 12.320312 17.554688 12.429688 17.554688 L 16.613281 17.554688 C 16.726562 17.554688 16.78125 17.609375 16.78125 17.722656 C 16.78125 17.832031 16.726562 17.886719 16.613281 17.886719 Z M 16.613281 16.539062 L 12.429688 16.539062 C 12.320312 16.539062 12.265625 16.484375 12.265625 16.375 C 12.265625 16.261719 12.320312 16.207031 12.429688 16.207031 L 16.613281 16.207031 C 16.726562 16.207031 16.78125 16.261719 16.78125 16.375 C 16.78125 16.484375 16.726562 16.539062 16.613281 16.539062 Z M 16.613281 15.191406 L 12.429688 15.191406 C 12.320312 15.191406 12.265625 15.136719 12.265625 15.027344 C 12.265625 14.914062 12.320312 14.859375 12.429688 14.859375 L 16.613281 14.859375 C 16.726562 14.859375 16.78125 14.914062 16.78125 15.027344 C 16.78125 15.136719 16.726562 15.191406 16.613281 15.191406 Z M 16.613281 13.84375 L 12.429688 13.84375 C 12.320312 13.84375 12.265625 13.789062 12.265625 13.679688 C 12.265625 13.566406 12.320312 13.511719 12.429688 13.511719 L 16.613281 13.511719 C 16.726562 13.511719 16.78125 13.566406 16.78125 13.679688 C 16.78125 13.789062 16.726562 13.84375 16.613281 13.84375 Z M 16.613281 12.496094 L 12.429688 12.496094 C 12.320312 12.496094 12.265625 12.441406 12.265625 12.332031 C 12.265625 12.21875 12.320312 12.164062 12.429688 12.164062 L 16.613281 12.164062 C 16.726562 12.164062 16.78125 12.21875 16.78125 12.332031 C 16.78125 12.441406 16.726562 12.496094 16.613281 12.496094 Z M 16.996094 10.308594 C 16.996094 10.394531 16.964844 10.464844 16.90625 10.527344 C 16.84375 10.585938 16.773438 10.613281 16.691406 10.613281 L 10.230469 10.613281 C 10.148438 10.613281 10.074219 10.585938 10.015625 10.527344 C 9.957031 10.464844 9.925781 10.394531 9.925781 10.308594 L 9.925781 9.023438 C 9.925781 8.941406 9.957031 8.867188 10.015625 8.808594 C 10.074219 8.75 10.148438 8.71875 10.230469 8.71875 L 16.691406 8.71875 C 16.773438 8.71875 16.847656 8.75 16.90625 8.808594 C 16.964844 8.867188 16.996094 8.941406 16.996094 9.023438 Z M 16.996094 10.308594 " fill-opacity="1" fill-rule="nonzero"/></g><path fill="#ffffff" d="M 10.257812 9.054688 L 16.660156 9.054688 L 16.660156 10.28125 L 10.257812 10.28125 Z M 10.257812 9.054688 " fill-opacity="1" fill-rule="nonzero"/></svg>