<svg xmlns="http://www.w3.org/2000/svg" xmlns:xlink="http://www.w3.org/1999/xlink" width="40" zoomAndPan="magnify" viewBox="0 0 30 30.000001" height="40" preserveAspectRatio="xMidYMid meet" version="1.0"><defs><clipPath id="ff38ee3c56"><path d="M 0.484375 0 L 29.515625 0 L 29.515625 29.03125 L 0.484375 29.03125 Z M 0.484375 0 " clip-rule="nonzero"/></clipPath><clipPath id="9943129f71"><path d="M 2.40625 1.921875 L 27.808594 1.921875 L 27.808594 27.328125 L 2.40625 27.328125 Z M 2.40625 1.921875 " clip-rule="nonzero"/></clipPath><clipPath id="a94c2b64d1"><path d="M 10.167969 7.796875 L 19.605469 7.796875 L 19.605469 21.585938 L 10.167969 21.585938 Z M 10.167969 7.796875 " clip-rule="nonzero"/></clipPath></defs><g clip-path="url(#ff38ee3c56)"><path fill="#ffffff" d="M 0.484375 0 L 29.515625 0 L 29.515625 29.03125 L 0.484375 29.03125 Z M 0.484375 0 " fill-opacity="1" fill-rule="nonzero"/><path fill="#ffcc00" d="M 0.484375 0 L 29.515625 0 L 29.515625 29.03125 L 0.484375 29.03125 Z M 0.484375 0 " fill-opacity="1" fill-rule="nonzero"/></g><g clip-path="url(#9943129f71)"><path fill="#ffffff" d="M 14.996094 27.101562 C 8.039062 27.101562 2.40625 21.425781 2.40625 14.511719 C 2.40625 7.597656 8.039062 1.921875 14.996094 1.921875 C 21.949219 1.921875 27.582031 7.558594 27.582031 14.511719 C 27.582031 21.464844 21.910156 27.101562 14.996094 27.101562 Z M 14.996094 2.699219 C 8.46875 2.699219 3.183594 7.984375 3.183594 14.511719 C 3.183594 21.039062 8.46875 26.324219 14.996094 26.324219 C 21.523438 26.324219 26.804688 21.039062 26.804688 14.511719 C 26.804688 7.984375 21.484375 2.699219 14.996094 2.699219 Z M 14.996094 2.699219 " fill-opacity="1" fill-rule="nonzero"/></g><g clip-path="url(#a94c2b64d1)"><path fill="#ffffff" d="M 19.828125 7.820312 L 18.914062 9.839844 L 16.824219 9.839844 C 16.925781 9.960938 17.027344 10.117188 17.125 10.308594 C 17.222656 10.5 17.285156 10.695312 17.316406 10.890625 L 19.828125 10.890625 L 18.914062 12.90625 L 17.316406 12.90625 C 17.242188 13.347656 17.09375 13.742188 16.863281 14.097656 C 16.636719 14.457031 16.351562 14.765625 16.011719 15.027344 C 15.667969 15.289062 15.28125 15.5 14.851562 15.660156 C 14.417969 15.824219 13.960938 15.925781 13.480469 15.96875 L 18.449219 21.207031 L 15.214844 21.207031 L 10.632812 16.113281 L 10.632812 14.09375 L 11.984375 14.09375 C 12.152344 14.09375 12.371094 14.082031 12.632812 14.058594 C 12.894531 14.035156 13.152344 13.980469 13.414062 13.898438 C 13.671875 13.816406 13.90625 13.699219 14.121094 13.542969 C 14.332031 13.386719 14.480469 13.175781 14.558594 12.90625 L 10.175781 12.90625 L 11.089844 10.890625 L 14.550781 10.890625 C 14.476562 10.644531 14.34375 10.453125 14.148438 10.3125 C 13.953125 10.175781 13.71875 10.070312 13.449219 10 C 13.175781 9.929688 12.875 9.886719 12.539062 9.867188 C 12.207031 9.847656 11.859375 9.839844 11.5 9.839844 L 10.175781 9.839844 L 11.089844 7.820312 Z M 19.828125 7.820312 " fill-opacity="1" fill-rule="nonzero"/></g></svg>