<svg xmlns="http://www.w3.org/2000/svg" xmlns:xlink="http://www.w3.org/1999/xlink" width="40" zoomAndPan="magnify" viewBox="0 0 30 30.000001" height="40" preserveAspectRatio="xMidYMid meet" version="1.0"><defs><clipPath id="abdf9c90e8"><path d="M 0.484375 0 L 29.515625 0 L 29.515625 29.03125 L 0.484375 29.03125 Z M 0.484375 0 " clip-rule="nonzero"/></clipPath><clipPath id="cbcb9b3885"><path d="M 2.40625 1.921875 L 27.808594 1.921875 L 27.808594 27.328125 L 2.40625 27.328125 Z M 2.40625 1.921875 " clip-rule="nonzero"/></clipPath><clipPath id="528673e49c"><path d="M 10 7.179688 L 20.652344 7.179688 L 20.652344 21.695312 L 10 21.695312 Z M 10 7.179688 " clip-rule="nonzero"/></clipPath><clipPath id="d844c6afbb"><path d="M 9.039062 7.179688 L 11 7.179688 L 11 21.695312 L 9.039062 21.695312 Z M 9.039062 7.179688 " clip-rule="nonzero"/></clipPath><clipPath id="900b9aac6e"><path d="M 20 8 L 20.652344 8 L 20.652344 11 L 20 11 Z M 20 8 " clip-rule="nonzero"/></clipPath><clipPath id="3dd291033c"><path d="M 20 11 L 20.652344 11 L 20.652344 14 L 20 14 Z M 20 11 " clip-rule="nonzero"/></clipPath><clipPath id="d75b8f3f84"><path d="M 20 14 L 20.652344 14 L 20.652344 17 L 20 17 Z M 20 14 " clip-rule="nonzero"/></clipPath></defs><g clip-path="url(#abdf9c90e8)"><path fill="#ffffff" d="M 0.484375 0 L 29.515625 0 L 29.515625 29.03125 L 0.484375 29.03125 Z M 0.484375 0 " fill-opacity="1" fill-rule="nonzero"/><path fill="#9d0176" d="M 0.484375 0 L 29.515625 0 L 29.515625 29.03125 L 0.484375 29.03125 Z M 0.484375 0 " fill-opacity="1" fill-rule="nonzero"/></g><g clip-path="url(#cbcb9b3885)"><path fill="#ffffff" d="M 14.996094 27.101562 C 8.039062 27.101562 2.40625 21.425781 2.40625 14.511719 C 2.40625 7.597656 8.039062 1.921875 14.996094 1.921875 C 21.949219 1.921875 27.582031 7.558594 27.582031 14.511719 C 27.582031 21.464844 21.910156 27.101562 14.996094 27.101562 Z M 14.996094 2.699219 C 8.46875 2.699219 3.183594 7.984375 3.183594 14.511719 C 3.183594 21.039062 8.46875 26.324219 14.996094 26.324219 C 21.523438 26.324219 26.804688 21.039062 26.804688 14.511719 C 26.804688 7.984375 21.484375 2.699219 14.996094 2.699219 Z M 14.996094 2.699219 " fill-opacity="1" fill-rule="nonzero"/></g><g clip-path="url(#528673e49c)"><path fill="#ffffff" d="M 19.289062 7.230469 L 17.621094 7.230469 L 17.621094 12.085938 L 16.589844 11.054688 L 15.527344 12.085938 L 15.527344 7.230469 L 10.980469 7.230469 L 10.980469 21.789062 L 19.289062 21.789062 C 19.683594 21.789062 20.019531 21.457031 20.019531 21.0625 L 20.019531 7.960938 C 20.019531 7.566406 19.683594 7.230469 19.289062 7.230469 Z M 19.289062 20.757812 C 19.289062 20.972656 19.109375 21.121094 18.925781 21.121094 L 13.195312 21.121094 C 12.980469 21.121094 12.828125 20.941406 12.828125 20.757812 L 12.828125 17.90625 C 12.828125 17.695312 13.011719 17.542969 13.195312 17.542969 L 18.925781 17.542969 C 19.136719 17.542969 19.289062 17.726562 19.289062 17.90625 Z M 19.289062 20.757812 " fill-opacity="1" fill-rule="nonzero"/></g><g clip-path="url(#d844c6afbb)"><path fill="#ffffff" d="M 9.039062 7.960938 L 9.039062 21.03125 C 9.039062 21.457031 9.371094 21.757812 9.765625 21.757812 L 10.375 21.757812 L 10.375 7.230469 L 9.765625 7.230469 C 9.34375 7.230469 9.039062 7.566406 9.039062 7.960938 Z M 9.039062 7.960938 " fill-opacity="1" fill-rule="nonzero"/></g><g clip-path="url(#900b9aac6e)"><path fill="#ffffff" d="M 20.777344 8.414062 L 20.289062 8.414062 L 20.289062 10.71875 L 20.777344 10.71875 C 20.867188 10.71875 20.957031 10.628906 20.957031 10.539062 L 20.957031 8.597656 C 20.925781 8.507812 20.867188 8.414062 20.777344 8.414062 Z M 20.777344 8.414062 " fill-opacity="1" fill-rule="nonzero"/></g><g clip-path="url(#3dd291033c)"><path fill="#ffffff" d="M 20.777344 11.207031 L 20.289062 11.207031 L 20.289062 13.511719 L 20.777344 13.511719 C 20.867188 13.511719 20.957031 13.417969 20.957031 13.328125 L 20.957031 11.386719 C 20.925781 11.296875 20.867188 11.207031 20.777344 11.207031 Z M 20.777344 11.207031 " fill-opacity="1" fill-rule="nonzero"/></g><g clip-path="url(#d75b8f3f84)"><path fill="#ffffff" d="M 20.777344 14.027344 L 20.289062 14.027344 L 20.289062 16.332031 L 20.777344 16.332031 C 20.867188 16.332031 20.957031 16.238281 20.957031 16.148438 L 20.957031 14.207031 C 20.925781 14.085938 20.867188 14.027344 20.777344 14.027344 Z M 20.777344 14.027344 " fill-opacity="1" fill-rule="nonzero"/></g><path fill="#ffffff" d="M 13.316406 18.789062 L 18.804688 18.789062 L 18.804688 19.058594 L 13.316406 19.058594 Z M 13.316406 18.789062 " fill-opacity="1" fill-rule="nonzero"/><path fill="#ffffff" d="M 13.316406 18.027344 L 18.804688 18.027344 L 18.804688 18.300781 L 13.316406 18.300781 Z M 13.316406 18.027344 " fill-opacity="1" fill-rule="nonzero"/><path fill="#ffffff" d="M 13.316406 19.574219 L 18.804688 19.574219 L 18.804688 19.847656 L 13.316406 19.847656 Z M 13.316406 19.574219 " fill-opacity="1" fill-rule="nonzero"/><path fill="#ffffff" d="M 13.316406 20.335938 L 15.710938 20.335938 L 15.710938 20.605469 L 13.316406 20.605469 Z M 13.316406 20.335938 " fill-opacity="1" fill-rule="nonzero"/></svg>