<svg xmlns="http://www.w3.org/2000/svg" xmlns:xlink="http://www.w3.org/1999/xlink" width="40" zoomAndPan="magnify" viewBox="0 0 30 30.000001" height="40" preserveAspectRatio="xMidYMid meet" version="1.0"><defs><clipPath id="e082d3637e"><path d="M 0.484375 0 L 29.515625 0 L 29.515625 29.03125 L 0.484375 29.03125 Z M 0.484375 0 " clip-rule="nonzero"/></clipPath><clipPath id="279b661bf5"><path d="M 2.40625 1.921875 L 27.808594 1.921875 L 27.808594 27.328125 L 2.40625 27.328125 Z M 2.40625 1.921875 " clip-rule="nonzero"/></clipPath><clipPath id="a78e373a9c"><path d="M 7.476562 10 L 10 10 L 10 11 L 7.476562 11 Z M 7.476562 10 " clip-rule="nonzero"/></clipPath><clipPath id="0281ac5796"><path d="M 7.476562 20 L 9 20 L 9 21 L 7.476562 21 Z M 7.476562 20 " clip-rule="nonzero"/></clipPath><clipPath id="82b27c5443"><path d="M 7.476562 13 L 14 13 L 14 18 L 7.476562 18 Z M 7.476562 13 " clip-rule="nonzero"/></clipPath><clipPath id="3c7c321ecb"><path d="M 7.476562 7.246094 L 22.71875 7.246094 L 22.71875 21.761719 L 7.476562 21.761719 Z M 7.476562 7.246094 " clip-rule="nonzero"/></clipPath></defs><g clip-path="url(#e082d3637e)"><path fill="#ffffff" d="M 0.484375 0 L 29.515625 0 L 29.515625 29.03125 L 0.484375 29.03125 Z M 0.484375 0 " fill-opacity="1" fill-rule="nonzero"/><path fill="#90ccb8" d="M 0.484375 0 L 29.515625 0 L 29.515625 29.03125 L 0.484375 29.03125 Z M 0.484375 0 " fill-opacity="1" fill-rule="nonzero"/></g><g clip-path="url(#279b661bf5)"><path fill="#ffffff" d="M 14.996094 27.101562 C 8.039062 27.101562 2.40625 21.425781 2.40625 14.511719 C 2.40625 7.597656 8.039062 1.921875 14.996094 1.921875 C 21.949219 1.921875 27.582031 7.558594 27.582031 14.511719 C 27.582031 21.464844 21.910156 27.101562 14.996094 27.101562 Z M 14.996094 2.699219 C 8.46875 2.699219 3.183594 7.984375 3.183594 14.511719 C 3.183594 21.039062 8.46875 26.324219 14.996094 26.324219 C 21.523438 26.324219 26.804688 21.039062 26.804688 14.511719 C 26.804688 7.984375 21.484375 2.699219 14.996094 2.699219 Z M 14.996094 2.699219 " fill-opacity="1" fill-rule="nonzero"/></g><g clip-path="url(#a78e373a9c)"><path fill="#ffffff" d="M 7.816406 10.933594 L 8.835938 10.933594 C 8.925781 10.933594 9.003906 10.855469 9.003906 10.761719 C 9.003906 10.667969 8.925781 10.59375 8.835938 10.59375 L 7.816406 10.59375 C 7.726562 10.59375 7.648438 10.667969 7.648438 10.761719 C 7.648438 10.855469 7.726562 10.933594 7.816406 10.933594 Z M 7.816406 10.933594 " fill-opacity="1" fill-rule="nonzero"/></g><g clip-path="url(#0281ac5796)"><path fill="#ffffff" d="M 8.15625 20.074219 L 7.816406 20.074219 C 7.726562 20.074219 7.648438 20.152344 7.648438 20.246094 C 7.648438 20.339844 7.726562 20.414062 7.816406 20.414062 L 8.15625 20.414062 C 8.25 20.414062 8.324219 20.339844 8.324219 20.246094 C 8.324219 20.152344 8.25 20.074219 8.15625 20.074219 Z M 8.15625 20.074219 " fill-opacity="1" fill-rule="nonzero"/></g><path fill="#ffffff" d="M 19.296875 8.5625 C 18.457031 8.5625 17.773438 9.246094 17.773438 10.085938 C 17.773438 10.925781 18.457031 11.609375 19.296875 11.609375 C 20.136719 11.609375 20.820312 10.925781 20.820312 10.085938 C 20.820312 9.246094 20.136719 8.5625 19.296875 8.5625 Z M 19.652344 10.851562 L 19.535156 10.507812 L 19.054688 10.507812 L 18.941406 10.851562 L 18.578125 10.851562 L 19.136719 9.320312 L 19.457031 9.320312 L 20.015625 10.851562 Z M 19.652344 10.851562 " fill-opacity="1" fill-rule="nonzero"/><path fill="#ffffff" d="M 13.621094 13.980469 L 20.046875 13.980469 L 20.300781 12.964844 L 13.875 12.964844 Z M 13.621094 13.980469 " fill-opacity="1" fill-rule="nonzero"/><g clip-path="url(#82b27c5443)"><path fill="#ffffff" d="M 11.238281 15.65625 C 11.308594 15.65625 11.371094 15.695312 11.394531 15.757812 C 11.421875 15.824219 11.40625 15.894531 11.359375 15.945312 L 10.882812 16.417969 C 10.695312 16.605469 10.695312 16.914062 10.882812 17.101562 C 11.046875 17.265625 11.300781 17.285156 11.488281 17.167969 C 11.492188 17.164062 11.496094 17.160156 11.5 17.15625 C 11.507812 17.152344 11.515625 17.144531 11.523438 17.140625 C 11.527344 17.136719 11.53125 17.132812 11.535156 17.132812 C 11.546875 17.121094 11.558594 17.113281 11.566406 17.101562 L 13.105469 15.5625 C 13.207031 15.464844 13.257812 15.324219 13.246094 15.183594 C 13.246094 15.175781 13.246094 15.167969 13.246094 15.15625 C 13.257812 15.015625 13.207031 14.878906 13.105469 14.777344 L 11.851562 13.523438 L 11.566406 13.242188 C 11.476562 13.148438 11.355469 13.097656 11.226562 13.097656 C 11.097656 13.097656 10.976562 13.148438 10.882812 13.242188 C 10.792969 13.332031 10.742188 13.453125 10.742188 13.582031 C 10.742188 13.710938 10.792969 13.832031 10.882812 13.925781 L 11.359375 14.398438 C 11.40625 14.445312 11.421875 14.519531 11.394531 14.582031 C 11.371094 14.648438 11.308594 14.6875 11.238281 14.6875 L 7.980469 14.6875 C 7.710938 14.6875 7.488281 14.898438 7.480469 15.15625 C 7.476562 15.285156 7.523438 15.414062 7.617188 15.507812 C 7.707031 15.601562 7.832031 15.65625 7.964844 15.65625 Z M 11.238281 15.65625 " fill-opacity="1" fill-rule="nonzero"/></g><path fill="#ffffff" d="M 19.113281 10.265625 L 19.476562 10.265625 L 19.296875 9.722656 Z M 19.113281 10.265625 " fill-opacity="1" fill-rule="nonzero"/><g clip-path="url(#3c7c321ecb)"><path fill="#ffffff" d="M 21.378906 7.257812 L 13.828125 7.257812 C 13.203125 7.257812 12.691406 7.769531 12.691406 8.394531 C 12.691406 8.398438 12.691406 8.40625 12.691406 8.410156 L 12.636719 8.902344 L 9.171875 8.902344 C 9.078125 8.902344 9.003906 8.976562 9.003906 9.070312 C 9.003906 9.164062 9.078125 9.238281 9.171875 9.238281 L 12.601562 9.238281 L 12.449219 10.59375 L 9.851562 10.59375 C 9.757812 10.59375 9.679688 10.667969 9.679688 10.761719 C 9.679688 10.855469 9.757812 10.933594 9.851562 10.933594 L 12.414062 10.933594 L 12.148438 13.339844 L 13.347656 14.539062 C 13.511719 14.707031 13.597656 14.9375 13.585938 15.171875 C 13.597656 15.40625 13.511719 15.636719 13.347656 15.804688 L 11.808594 17.339844 C 11.789062 17.359375 11.769531 17.378906 11.75 17.394531 C 11.742188 17.402344 11.730469 17.40625 11.722656 17.414062 C 11.710938 17.421875 11.703125 17.429688 11.695312 17.4375 L 11.589844 18.382812 L 8.15625 18.382812 C 8.0625 18.382812 7.988281 18.457031 7.988281 18.550781 C 7.988281 18.644531 8.0625 18.722656 8.15625 18.722656 L 11.550781 18.722656 L 11.402344 20.074219 L 9.171875 20.074219 C 9.078125 20.074219 9.003906 20.152344 9.003906 20.246094 C 9.003906 20.339844 9.078125 20.414062 9.171875 20.414062 L 11.363281 20.414062 L 11.339844 20.644531 C 11.34375 21.265625 11.851562 21.769531 12.472656 21.769531 L 20.023438 21.769531 C 20.648438 21.769531 21.160156 21.257812 21.160156 20.632812 C 21.160156 20.628906 21.160156 20.621094 21.160156 20.617188 L 22.511719 8.382812 C 22.507812 7.761719 22 7.257812 21.378906 7.257812 Z M 14.082031 8.5625 L 16.453125 8.5625 C 16.546875 8.5625 16.621094 8.636719 16.621094 8.730469 C 16.621094 8.824219 16.546875 8.902344 16.453125 8.902344 L 14.082031 8.902344 C 13.988281 8.902344 13.914062 8.824219 13.914062 8.730469 C 13.914062 8.636719 13.988281 8.5625 14.082031 8.5625 Z M 13.742188 9.578125 L 16.453125 9.578125 C 16.546875 9.578125 16.621094 9.652344 16.621094 9.746094 C 16.621094 9.839844 16.546875 9.917969 16.453125 9.917969 L 13.742188 9.917969 C 13.652344 9.917969 13.574219 9.839844 13.574219 9.746094 C 13.574219 9.652344 13.652344 9.578125 13.742188 9.578125 Z M 13.40625 10.59375 L 16.453125 10.59375 C 16.546875 10.59375 16.621094 10.667969 16.621094 10.761719 C 16.621094 10.855469 16.546875 10.933594 16.453125 10.933594 L 13.40625 10.933594 C 13.3125 10.933594 13.234375 10.855469 13.234375 10.761719 C 13.234375 10.667969 13.3125 10.59375 13.40625 10.59375 Z M 13.40625 11.609375 L 16.453125 11.609375 C 16.546875 11.609375 16.621094 11.6875 16.621094 11.777344 C 16.621094 11.871094 16.546875 11.949219 16.453125 11.949219 L 13.40625 11.949219 C 13.3125 11.949219 13.234375 11.871094 13.234375 11.777344 C 13.234375 11.6875 13.3125 11.609375 13.40625 11.609375 Z M 20.3125 16.285156 L 17.941406 19.332031 C 17.902344 19.382812 17.839844 19.40625 17.777344 19.394531 C 17.71875 19.386719 17.667969 19.339844 17.648438 19.28125 L 17.0625 17.535156 L 15.226562 19.675781 C 15.183594 19.726562 15.117188 19.746094 15.054688 19.730469 C 14.992188 19.714844 14.945312 19.664062 14.933594 19.601562 L 14.660156 18.25 L 12.855469 20.355469 C 12.824219 20.394531 12.777344 20.414062 12.726562 20.414062 C 12.6875 20.414062 12.648438 20.402344 12.617188 20.371094 C 12.546875 20.3125 12.539062 20.207031 12.597656 20.132812 L 14.632812 17.765625 C 14.671875 17.714844 14.738281 17.695312 14.800781 17.710938 C 14.867188 17.726562 14.914062 17.777344 14.925781 17.839844 L 15.195312 19.191406 L 17 17.085938 C 17.042969 17.039062 17.101562 17.019531 17.164062 17.03125 C 17.222656 17.042969 17.269531 17.085938 17.289062 17.144531 L 17.867188 18.875 L 20.042969 16.078125 C 20.101562 16.003906 20.207031 15.988281 20.28125 16.046875 C 20.355469 16.105469 20.367188 16.210938 20.3125 16.285156 Z M 14.589844 15.503906 C 14.589844 15.410156 14.667969 15.335938 14.757812 15.335938 L 18.824219 15.335938 C 18.917969 15.335938 18.992188 15.410156 18.992188 15.503906 C 18.992188 15.597656 18.917969 15.671875 18.824219 15.671875 L 14.757812 15.671875 C 14.667969 15.671875 14.589844 15.597656 14.589844 15.503906 Z M 20.679688 12.835938 L 20.34375 14.191406 C 20.324219 14.265625 20.253906 14.320312 20.175781 14.320312 L 13.40625 14.320312 C 13.351562 14.320312 13.304688 14.292969 13.273438 14.253906 C 13.238281 14.210938 13.226562 14.160156 13.242188 14.109375 L 13.578125 12.753906 C 13.597656 12.679688 13.667969 12.625 13.742188 12.625 L 20.515625 12.625 C 20.566406 12.625 20.617188 12.648438 20.648438 12.691406 C 20.683594 12.730469 20.691406 12.785156 20.679688 12.835938 Z M 19.296875 11.949219 C 18.269531 11.949219 17.433594 11.113281 17.433594 10.085938 C 17.433594 9.058594 18.269531 8.222656 19.296875 8.222656 C 20.324219 8.222656 21.160156 9.058594 21.160156 10.085938 C 21.160156 11.113281 20.324219 11.949219 19.296875 11.949219 Z M 19.296875 11.949219 " fill-opacity="1" fill-rule="nonzero"/></g></svg>