<svg xmlns="http://www.w3.org/2000/svg" xmlns:xlink="http://www.w3.org/1999/xlink" width="40" zoomAndPan="magnify" viewBox="0 0 30 30.000001" height="40" preserveAspectRatio="xMidYMid meet" version="1.0"><defs><clipPath id="9f146992e5"><path d="M 0.484375 0 L 29.515625 0 L 29.515625 29.03125 L 0.484375 29.03125 Z M 0.484375 0 " clip-rule="nonzero"/></clipPath><clipPath id="7672760f85"><path d="M 2.40625 1.921875 L 27.808594 1.921875 L 27.808594 27.328125 L 2.40625 27.328125 Z M 2.40625 1.921875 " clip-rule="nonzero"/></clipPath><clipPath id="556bd97507"><path d="M 8.425781 5.910156 L 21.492188 5.910156 L 21.492188 23.328125 L 8.425781 23.328125 Z M 8.425781 5.910156 " clip-rule="nonzero"/></clipPath></defs><g clip-path="url(#9f146992e5)"><path fill="#ffffff" d="M 0.484375 0 L 29.515625 0 L 29.515625 29.03125 L 0.484375 29.03125 Z M 0.484375 0 " fill-opacity="1" fill-rule="nonzero"/><path fill="#243664" d="M 0.484375 0 L 29.515625 0 L 29.515625 29.03125 L 0.484375 29.03125 Z M 0.484375 0 " fill-opacity="1" fill-rule="nonzero"/></g><g clip-path="url(#7672760f85)"><path fill="#ffffff" d="M 14.996094 27.101562 C 8.039062 27.101562 2.40625 21.425781 2.40625 14.511719 C 2.40625 7.597656 8.039062 1.921875 14.996094 1.921875 C 21.949219 1.921875 27.582031 7.558594 27.582031 14.511719 C 27.582031 21.464844 21.910156 27.101562 14.996094 27.101562 Z M 14.996094 2.699219 C 8.46875 2.699219 3.183594 7.984375 3.183594 14.511719 C 3.183594 21.039062 8.46875 26.324219 14.996094 26.324219 C 21.523438 26.324219 26.804688 21.039062 26.804688 14.511719 C 26.804688 7.984375 21.484375 2.699219 14.996094 2.699219 Z M 14.996094 2.699219 " fill-opacity="1" fill-rule="nonzero"/></g><g clip-path="url(#556bd97507)"><path fill="#ffffff" d="M 8.863281 20.214844 C 9.144531 19.382812 9.5625 18.515625 10.136719 17.578125 C 10.472656 17.027344 10.578125 16.820312 10.679688 16.519531 C 10.785156 16.199219 10.941406 15.917969 11.0625 15.835938 C 11.132812 15.789062 11.210938 15.773438 11.445312 15.757812 C 11.621094 15.746094 11.773438 15.75 11.816406 15.769531 C 11.855469 15.78125 11.925781 15.789062 11.964844 15.777344 C 12.140625 15.734375 12.535156 15.558594 12.777344 15.414062 C 12.917969 15.328125 13.101562 15.230469 13.1875 15.191406 C 13.335938 15.128906 13.339844 15.121094 13.375 14.972656 L 13.40625 14.816406 L 13.253906 14.660156 C 12.882812 14.28125 12.675781 13.832031 12.601562 13.25 C 12.59375 13.167969 12.554688 13.070312 12.515625 13.015625 C 12.476562 12.96875 12.425781 12.878906 12.402344 12.824219 C 12.347656 12.691406 12.253906 12.3125 12.253906 12.222656 C 12.253906 12.183594 12.222656 12.097656 12.191406 12.035156 C 12.140625 11.941406 12.132812 11.902344 12.15625 11.835938 C 12.179688 11.773438 12.199219 11.757812 12.28125 11.757812 C 12.375 11.753906 12.378906 11.75 12.371094 11.660156 C 12.363281 11.605469 12.359375 11.367188 12.355469 11.125 C 12.355469 10.757812 12.367188 10.625 12.433594 10.285156 C 12.472656 10.0625 12.5 9.871094 12.484375 9.855469 C 12.441406 9.8125 11.148438 9.4375 11.042969 9.4375 C 11.003906 9.4375 10.984375 9.457031 10.984375 9.492188 C 11 9.5625 11.027344 9.71875 11.070312 9.929688 L 11.109375 10.339844 C 11.132812 10.5625 11.183594 10.886719 11.222656 11.058594 C 11.320312 11.496094 11.410156 11.976562 11.40625 12.054688 C 11.40625 12.09375 11.429688 12.238281 11.460938 12.378906 C 11.488281 12.515625 11.539062 12.78125 11.574219 12.96875 C 11.738281 13.890625 11.734375 13.855469 11.695312 13.855469 C 11.667969 13.855469 11.628906 13.6875 11.578125 13.363281 C 11.539062 13.132812 11.488281 12.953125 11.457031 12.953125 C 11.445312 12.953125 11.4375 12.984375 11.4375 13.015625 C 11.4375 13.140625 11.546875 13.898438 11.589844 14.066406 C 11.632812 14.242188 11.644531 14.417969 11.617188 14.523438 C 11.59375 14.609375 11.566406 14.601562 11.523438 14.496094 L 11.484375 14.402344 L 11.464844 14.515625 C 11.453125 14.609375 11.4375 14.628906 11.382812 14.636719 C 11.34375 14.640625 11.292969 14.660156 11.265625 14.683594 C 11.191406 14.753906 10.933594 14.738281 10.851562 14.664062 C 10.816406 14.628906 10.757812 14.601562 10.722656 14.601562 C 10.664062 14.601562 10.664062 14.589844 10.671875 14.402344 C 10.675781 14.292969 10.691406 14.117188 10.707031 14.007812 C 10.738281 13.78125 10.71875 12.664062 10.675781 12.027344 C 10.660156 11.785156 10.640625 11.082031 10.628906 10.457031 C 10.617188 9.671875 10.601562 9.320312 10.582031 9.300781 C 10.527344 9.257812 10.246094 9.191406 10.03125 9.171875 C 9.785156 9.148438 9.691406 9.117188 9.691406 9.054688 C 9.691406 8.964844 10.007812 8.648438 10.351562 8.390625 C 10.542969 8.246094 10.71875 8.09375 10.742188 8.054688 C 10.765625 8.011719 10.835938 7.953125 10.894531 7.925781 C 10.953125 7.898438 11.175781 7.730469 11.394531 7.550781 C 11.609375 7.371094 11.894531 7.144531 12.027344 7.050781 C 12.160156 6.957031 12.441406 6.753906 12.652344 6.601562 C 12.863281 6.449219 13.144531 6.257812 13.269531 6.175781 C 13.398438 6.097656 13.539062 6.003906 13.582031 5.972656 L 13.65625 5.910156 L 14.042969 6.03125 C 15.714844 6.554688 16.902344 6.941406 17.878906 7.28125 C 18.898438 7.636719 19.214844 7.757812 19.59375 7.929688 C 19.800781 8.027344 20.039062 8.128906 20.121094 8.15625 C 20.203125 8.183594 20.296875 8.226562 20.332031 8.253906 C 20.386719 8.300781 20.390625 8.3125 20.355469 8.355469 C 20.285156 8.433594 19.925781 8.601562 19.769531 8.625 C 19.601562 8.648438 19.265625 8.84375 17.992188 9.660156 L 17.222656 10.152344 L 17.242188 10.339844 C 17.25 10.445312 17.285156 10.640625 17.316406 10.777344 C 17.375 11.023438 17.378906 11.335938 17.328125 11.53125 C 17.308594 11.609375 17.3125 11.609375 17.375 11.589844 C 17.546875 11.535156 17.609375 11.542969 17.679688 11.613281 C 17.769531 11.710938 17.792969 12.015625 17.726562 12.175781 C 17.703125 12.238281 17.671875 12.359375 17.664062 12.445312 C 17.625 12.804688 17.289062 13.289062 17.046875 13.335938 C 16.996094 13.347656 16.941406 13.367188 16.925781 13.386719 C 16.914062 13.402344 16.863281 13.546875 16.8125 13.707031 L 16.722656 13.996094 L 16.875 14.3125 C 16.960938 14.484375 17.050781 14.707031 17.078125 14.804688 C 17.132812 15 17.125 14.992188 17.609375 15.371094 C 17.894531 15.589844 17.972656 15.667969 18.230469 15.992188 C 18.308594 16.089844 18.453125 16.234375 18.554688 16.316406 C 18.652344 16.398438 18.84375 16.5625 18.976562 16.679688 C 19.175781 16.863281 19.226562 16.894531 19.285156 16.878906 C 19.542969 16.8125 19.554688 16.816406 19.761719 17.023438 C 19.867188 17.128906 20.023438 17.277344 20.113281 17.351562 C 20.417969 17.617188 20.632812 18.109375 21.164062 19.777344 C 21.289062 20.167969 21.402344 20.578125 21.421875 20.691406 C 21.550781 21.472656 21.550781 22.25 21.550781 23.046875 L 21.570312 23.109375 L 8.425781 23.109375 C 8.425781 21.882812 8.621094 20.921875 8.863281 20.214844 Z M 11.46875 14.144531 C 11.457031 13.945312 11.40625 13.871094 11.410156 14.054688 C 11.410156 14.191406 11.433594 14.304688 11.460938 14.304688 C 11.46875 14.304688 11.472656 14.230469 11.46875 14.144531 Z M 11.761719 14.5 C 11.722656 14.382812 11.671875 14.003906 11.6875 13.957031 C 11.714844 13.878906 11.730469 13.914062 11.789062 14.214844 C 11.828125 14.410156 11.832031 14.480469 11.808594 14.507812 C 11.785156 14.53125 11.773438 14.53125 11.761719 14.5 Z M 11.761719 14.5 " fill-opacity="1" fill-rule="nonzero"/></g></svg>